HIERARCHY
ROOT Hips
{
	OFFSET 0.000000 0.000000 0.000000
	CHANNELS 6 Xposition Yposition Zposition Xrotation Yrotation Zrotation
	JOINT C_ctrl
	{
		OFFSET 0.000000 35.040482 -0.000011
		CHANNELS 3 Xrotation Yrotation Zrotation
		JOINT Bip01
		{
			OFFSET -41.537640 41.789009 -0.000007
			CHANNELS 3 Xrotation Yrotation Zrotation
			JOINT Bip01_Pelvis
			{
				OFFSET -2.462887 0.000000 0.000000
				CHANNELS 3 Xrotation Yrotation Zrotation
				JOINT BN_Tail_01
				{
					OFFSET -11.399368 7.351341 -0.000013
					CHANNELS 3 Xrotation Yrotation Zrotation
					JOINT BN_Tail_02
					{
						OFFSET -11.365196 -0.343025 0.000012
						CHANNELS 3 Xrotation Yrotation Zrotation
						JOINT BN_Tail_03
						{
							OFFSET -15.076256 -0.454979 0.000017
							CHANNELS 3 Xrotation Yrotation Zrotation
							JOINT BN_Tail_04
							{
								OFFSET -17.395691 -0.525002 0.000016
								CHANNELS 3 Xrotation Yrotation Zrotation
								JOINT BN_Tail_05
								{
									OFFSET -16.699837 -0.504005 0.000016
									CHANNELS 3 Xrotation Yrotation Zrotation
									End Site
									{
										OFFSET 0.503998 -16.699829 0.000067
									}
								}
							}
						}
					}
				}
				JOINT Bip01_Spine
				{
					OFFSET 8.297798 5.916809 -0.000020
					CHANNELS 3 Xrotation Yrotation Zrotation
					JOINT Bip01_R_Thigh
					{
						OFFSET -8.297779 -5.916794 10.541781
						CHANNELS 3 Xrotation Yrotation Zrotation
						JOINT Bip01_R_Calf
						{
							OFFSET 5.631542 -22.906792 0.862690
							CHANNELS 3 Xrotation Yrotation Zrotation
							JOINT Bip01_R_HorseLink
							{
								OFFSET -16.984341 -19.231926 -3.555767
								CHANNELS 3 Xrotation Yrotation Zrotation
								JOINT Bip01_R_Foot
								{
									OFFSET 4.290367 -24.783146 0.578056
									CHANNELS 3 Xrotation Yrotation Zrotation
									JOINT Bip01_R_Toe0
									{
										OFFSET 3.561211 -5.815116 0.760802
										CHANNELS 3 Xrotation Yrotation Zrotation
										JOINT Bip01_R_Toe0Nub
										{
											OFFSET 16.135469 0.002017 1.534789
											CHANNELS 3 Xrotation Yrotation Zrotation
											End Site
											{
												OFFSET -0.000002 16.208284 -0.000056
											}
										}
									}
								}
							}
						}
					}
					JOINT Bip01_L_Thigh
					{
						OFFSET -8.297813 -5.916832 -10.541739
						CHANNELS 3 Xrotation Yrotation Zrotation
						JOINT Bip01_L_Calf
						{
							OFFSET 5.631535 -22.906792 -0.862625
							CHANNELS 3 Xrotation Yrotation Zrotation
							JOINT Bip01_L_HorseLink
							{
								OFFSET -16.984318 -19.231949 3.555875
								CHANNELS 3 Xrotation Yrotation Zrotation
								JOINT Bip01_L_Foot
								{
									OFFSET 4.290367 -24.783169 -0.577965
									CHANNELS 3 Xrotation Yrotation Zrotation
									JOINT Bip01_L_Toe0
									{
										OFFSET 3.561245 -5.815111 -0.760799
										CHANNELS 3 Xrotation Yrotation Zrotation
										JOINT Bip01_L_Toe0Nub
										{
											OFFSET 6.574303 -0.000005 -1.538561
											CHANNELS 3 Xrotation Yrotation Zrotation
											End Site
											{
												OFFSET 0.000004 -6.751935 0.000023
											}
										}
									}
								}
							}
						}
					}
					JOINT Bip01_Spine1
					{
						OFFSET 20.556803 -4.626213 -0.000025
						CHANNELS 3 Xrotation Yrotation Zrotation
						JOINT Saddle
						{
							OFFSET 17.608810 18.174690 -0.000143
							CHANNELS 3 Xrotation Yrotation Zrotation
							End Site
							{
								OFFSET -0.000063 -0.000061 -22.448387
							}
						}
						JOINT BN_center
						{
							OFFSET 10.743275 -13.417107 -0.172041
							CHANNELS 3 Xrotation Yrotation Zrotation
							End Site
							{
								OFFSET 22.434088 0.553078 -0.579614
							}
						}
						JOINT Bip01_Spine2
						{
							OFFSET 24.765072 -2.054115 -0.000032
							CHANNELS 3 Xrotation Yrotation Zrotation
							JOINT Handle
							{
								OFFSET 63.735676 16.430748 -16.052464
								CHANNELS 3 Xrotation Yrotation Zrotation
								JOINT IK_Chain01
								{
									OFFSET -4.713058 -6.020439 0.185448
									CHANNELS 3 Xrotation Yrotation Zrotation
									End Site
									{
										OFFSET -0.000023 -0.000023 -7.648071
									}
								}
							}
							JOINT BN_hair04_01
							{
								OFFSET 1.987491 16.256981 -2.049672
								CHANNELS 3 Xrotation Yrotation Zrotation
								JOINT BN_hair04_02
								{
									OFFSET -1.318762 -3.831451 -6.174704
									CHANNELS 3 Xrotation Yrotation Zrotation
									JOINT BN_hair04_03
									{
										OFFSET -0.827490 -5.886627 -5.656666
										CHANNELS 3 Xrotation Yrotation Zrotation
										End Site
										{
											OFFSET -2.658262 5.010620 -5.929780
										}
									}
								}
							}
							JOINT Bip01_Neck
							{
								OFFSET 25.574577 9.433014 -0.000084
								CHANNELS 3 Xrotation Yrotation Zrotation
								JOINT Bip01_R_Clavicle
								{
									OFFSET -16.535652 0.011192 6.705692
									CHANNELS 3 Xrotation Yrotation Zrotation
									JOINT Bip01_R_UpperArm
									{
										OFFSET 20.272621 -12.959984 2.510816
										CHANNELS 3 Xrotation Yrotation Zrotation
										JOINT Bip01_R_Forearm
										{
											OFFSET -13.633509 -15.503704 -0.653585
											CHANNELS 3 Xrotation Yrotation Zrotation
											JOINT Bip01_R_Hand
											{
												OFFSET 2.580030 -27.804676 -1.136415
												CHANNELS 3 Xrotation Yrotation Zrotation
												JOINT Bip01_R_Finger0
												{
													OFFSET -0.281744 -19.659061 -0.398649
													CHANNELS 3 Xrotation Yrotation Zrotation
													JOINT Bip01_Xtra02
													{
														OFFSET 4.152210 -5.712314 0.433813
														CHANNELS 3 Xrotation Yrotation Zrotation
														JOINT Bip01_Xtra02Nub
														{
															OFFSET 15.457960 0.041654 0.507982
															CHANNELS 3 Xrotation Yrotation Zrotation
															End Site
															{
																OFFSET -15.421730 -0.157725 -1.163459
															}
														}
													}
													JOINT Bip01_R_Finger0Nub
													{
														OFFSET 8.362326 -9.718440 -0.143142
														CHANNELS 3 Xrotation Yrotation Zrotation
														End Site
														{
															OFFSET -1.213036 -0.198171 9.872291
														}
													}
												}
											}
										}
									}
								}
								JOINT Bip01_L_Clavicle
								{
									OFFSET -16.535673 0.011162 -6.705583
									CHANNELS 3 Xrotation Yrotation Zrotation
									JOINT Bip01_L_UpperArm
									{
										OFFSET 20.272615 -12.959999 -2.510836
										CHANNELS 3 Xrotation Yrotation Zrotation
										JOINT Bip01_L_Forearm
										{
											OFFSET -13.633495 -15.503681 0.653678
											CHANNELS 3 Xrotation Yrotation Zrotation
											JOINT Bip01_L_Hand
											{
												OFFSET 2.579988 -27.804686 1.136487
												CHANNELS 3 Xrotation Yrotation Zrotation
												JOINT Bip01_L_Finger0
												{
													OFFSET -0.281765 -19.659058 0.398696
													CHANNELS 3 Xrotation Yrotation Zrotation
													JOINT Bip01_Xtra01
													{
														OFFSET 4.083549 -5.738758 -0.666714
														CHANNELS 3 Xrotation Yrotation Zrotation
														JOINT Bip01_Xtra01Nub
														{
															OFFSET 6.758158 -0.395525 -0.023239
															CHANNELS 3 Xrotation Yrotation Zrotation
															End Site
															{
																OFFSET 6.764923 -0.254147 -0.029908
															}
														}
													}
													JOINT Bip01_L_Finger0Nub
													{
														OFFSET -0.012636 -9.629153 0.045740
														CHANNELS 3 Xrotation Yrotation Zrotation
														End Site
														{
															OFFSET 0.988407 0.004791 8.293357
														}
													}
												}
											}
										}
									}
								}
								JOINT BN_hair03_01
								{
									OFFSET -5.894140 16.270622 -2.498433
									CHANNELS 3 Xrotation Yrotation Zrotation
									JOINT BN_hair03_02
									{
										OFFSET -0.189278 -7.800507 -6.219162
										CHANNELS 3 Xrotation Yrotation Zrotation
										JOINT BN_hair03_03
										{
											OFFSET 0.612345 -10.844475 -3.370718
											CHANNELS 3 Xrotation Yrotation Zrotation
											End Site
											{
												OFFSET -2.273296 2.862007 -10.769416
											}
										}
									}
								}
								JOINT Bip01_Neck1
								{
									OFFSET 9.383755 11.908699 -0.000007
									CHANNELS 3 Xrotation Yrotation Zrotation
									JOINT BN_hair02_01
									{
										OFFSET 9.126320 18.808022 -1.420810
										CHANNELS 3 Xrotation Yrotation Zrotation
										JOINT BN_hair02_02
										{
											OFFSET 0.393478 -5.181091 -5.248574
											CHANNELS 3 Xrotation Yrotation Zrotation
											JOINT BN_hair02_03
											{
												OFFSET 0.762280 -8.167076 -0.230047
												CHANNELS 3 Xrotation Yrotation Zrotation
												End Site
												{
													OFFSET -0.025837 -1.251419 -8.109770
												}
											}
										}
									}
									JOINT Bip01_Head
									{
										OFFSET 14.266129 10.475403 -0.000008
										CHANNELS 3 Xrotation Yrotation Zrotation
										JOINT BN_Reins_01
										{
											OFFSET 18.547455 -15.740112 -0.000035
											CHANNELS 3 Xrotation Yrotation Zrotation
											JOINT BN_Reins_02
											{
												OFFSET -5.372810 -5.884506 0.000028
												CHANNELS 3 Xrotation Yrotation Zrotation
												JOINT BN_Reins_03
												{
													OFFSET -6.395866 -15.947449 0.000070
													CHANNELS 3 Xrotation Yrotation Zrotation
													JOINT BN_Halter_R_01
													{
														OFFSET -1.234055 -3.096100 7.096737
														CHANNELS 3 Xrotation Yrotation Zrotation
														End Site
														{
															OFFSET 10.514435 -4.176861 -0.000004
														}
													}
													JOINT BN_Halter_L_01
													{
														OFFSET -1.234062 -3.096146 -7.096726
														CHANNELS 3 Xrotation Yrotation Zrotation
														End Site
														{
															OFFSET -10.514435 4.176865 -0.000000
														}
													}
													JOINT BN_Reins_04
													{
														OFFSET -6.737644 -16.971684 0.000074
														CHANNELS 3 Xrotation Yrotation Zrotation
														JOINT BN_Halter_R_02
														{
															OFFSET -4.688869 -11.781956 7.096771
															CHANNELS 3 Xrotation Yrotation Zrotation
															End Site
															{
																OFFSET 14.669624 -5.827511 -0.000006
															}
														}
														JOINT BN_Halter_L_02
														{
															OFFSET -4.688892 -11.782017 -7.096693
															CHANNELS 3 Xrotation Yrotation Zrotation
															End Site
															{
																OFFSET -14.669624 5.827507 -0.000002
															}
														}
														JOINT BN_Reins_05
														{
															OFFSET -6.822578 -16.971161 0.000074
															CHANNELS 3 Xrotation Yrotation Zrotation
															JOINT BN_Reins_06
															{
																OFFSET -6.140354 -15.095148 0.000066
																CHANNELS 3 Xrotation Yrotation Zrotation
																End Site
																{
																	OFFSET -15.095150 6.140352 -0.000002
																}
															}
														}
													}
												}
											}
										}
										JOINT BN_hair01_01
										{
											OFFSET 8.957344 8.870956 0.112121
											CHANNELS 3 Xrotation Yrotation Zrotation
											JOINT BN_hair01_02
											{
												OFFSET 6.002075 -2.962952 -3.121264
												CHANNELS 3 Xrotation Yrotation Zrotation
												End Site
												{
													OFFSET 5.917702 3.813591 -2.232396
												}
											}
										}
										JOINT BN_Eyebrow_R
										{
											OFFSET 11.795959 -0.430496 4.449781
											CHANNELS 3 Xrotation Yrotation Zrotation
											JOINT Bip01_Xtra06Nub
											{
												OFFSET 2.936661 -0.262573 3.246701
												CHANNELS 3 Xrotation Yrotation Zrotation
												End Site
												{
													OFFSET 2.768745 0.208199 3.394807
												}
											}
										}
										JOINT BN_Eyebrow_L
										{
											OFFSET 11.586395 -0.445618 -4.441728
											CHANNELS 3 Xrotation Yrotation Zrotation
											JOINT Bip01_Xtra05Nub
											{
												OFFSET 3.244698 -0.349442 -4.416700
												CHANNELS 3 Xrotation Yrotation Zrotation
												End Site
												{
													OFFSET 3.053162 0.072495 -4.564033
												}
											}
										}
										JOINT Bip01_R_Ear_01
										{
											OFFSET 7.142960 7.567184 4.311657
											CHANNELS 3 Xrotation Yrotation Zrotation
											JOINT Bip01_Xtra04Nub
											{
												OFFSET 9.464531 9.264214 1.682953
												CHANNELS 3 Xrotation Yrotation Zrotation
												End Site
												{
													OFFSET 8.448181 10.159340 1.910823
												}
											}
										}
										JOINT Bip01__L_Ear_01
										{
											OFFSET 7.214943 7.717056 -4.356771
											CHANNELS 3 Xrotation Yrotation Zrotation
											JOINT Bip01_Xtra03Nub
											{
												OFFSET 9.230225 8.944366 -2.322746
												CHANNELS 3 Xrotation Yrotation Zrotation
												End Site
												{
													OFFSET 8.170288 9.841324 -2.643566
												}
											}
										}
										JOINT Bip01_Jaw
										{
											OFFSET 9.196068 -4.110695 -0.000013
											CHANNELS 3 Xrotation Yrotation Zrotation
											JOINT Bip01_Ponytail1Nub
											{
												OFFSET 10.976463 -21.082108 -0.000053
												CHANNELS 3 Xrotation Yrotation Zrotation
												End Site
												{
													OFFSET 11.247093 -20.938980 0.000113
												}
											}
										}
										JOINT Bip01_HeadNub
										{
											OFFSET 29.954575 -18.249489 -0.000063
											CHANNELS 3 Xrotation Yrotation Zrotation
											End Site
											{
												OFFSET -9.198448 -13.366348 0.000168
											}
										}
									}
								}
							}
						}
					}
				}
			}
		}
	}
}
MOTION
Frames: 4
Frame Time: 0.033333
0.000000 0.000000 0.000000 0.000008 0.000000 -0.000000 -0.000000 0.000000 -0.000000 1.340227 7.733459 1.886703 -1.104052 -1.296869 -0.930618 6.731978 -8.421067 29.328183 -1.587991 3.623591 19.470315 -3.581434 9.723907 18.176800 -2.238991 10.734055 10.498137 -0.024593 6.596642 1.007735 2.417909 1.177906 2.043015 0.342573 3.980859 -0.764801 1.894862 -0.055267 -9.613466 -3.260280 -0.668719 16.905024 -1.155506 3.597889 -8.160193 0.483746 2.433761 -1.799801 -0.000000 -0.000039 0.000000 0.187373 2.733746 -7.550699 -1.377218 0.008487 -6.980618 3.131147 0.622559 16.211454 -5.251081 -8.883572 -4.853514 -0.078450 -3.673400 -0.254897 0.008366 -0.000046 0.038681 1.339692 0.029647 1.165861 -4.565172 -7.441728 -4.463424 3.211873 -0.090633 1.029324 -4.689006 -0.594443 1.125976 0.000068 -0.000074 -0.000055 -0.000047 -0.041866 0.027948 1.973468 3.632351 4.930971 -0.488244 -0.148060 0.224963 2.234377 0.248991 -0.617705 1.557763 -0.151506 -3.387072 -1.408211 -1.265640 -4.836269 5.094223 2.970032 0.530863 -0.000155 -0.005248 0.127909 -0.975642 -1.824324 6.193360 -3.933648 6.432155 -3.848111 2.281011 -3.394403 0.334092 -0.802225 0.160592 -0.479849 -0.804182 0.123478 -0.482645 -1.683471 0.882588 -1.738362 2.182399 0.313333 -12.583364 -0.044633 0.537856 13.186543 -3.224963 -2.233624 -12.179543 -2.216872 -0.402568 -18.062224 -0.000721 -0.000775 -0.136018 0.036648 0.063833 2.451875 -0.000914 0.100618 2.451958 1.009519 -1.242769 1.564133 1.575471 2.304789 -6.905896 5.661073 2.193625 -8.248991 1.481703 -0.497579 -3.383745 1.232376 -0.462484 0.644832 -2.549614 -0.333183 3.257365 0.158348 0.360622 2.230448 -4.359291 -1.785066 -36.649477 0.000005 -0.000242 -21.499108 -0.000507 0.002179 37.402676 -0.000117 -0.000120 -40.843592 -0.000008 -0.000005 -1.797734 -0.000004 -0.000007 -2.378478 -0.000205 -0.000146 -63.546051 -23.901441 -11.934228 -2.561129 34.949166 16.671911 -5.206546 -0.000113 -0.000126 -42.780572 0.000022 0.000009 -0.000022 0.441238 1.445612 -0.931077 -14.474469 -6.937042 -0.051301 -4.041293 1.321940 0.453517 0.024270 -0.029997 11.786702 5.637183 -2.360259 0.114108 0.023207 -0.032331 11.715992 6.073757 -1.657435 -5.341077 0.050318 0.015188 11.756005 1.391631 -4.110843 -0.753711 0.050133 0.014751 11.743128 -0.000084 0.000062 6.252977 -0.004367 -0.052742 11.750682 0.000062 -0.000010 11.750679 
0.000000 0.000000 0.000000 0.000008 0.000000 -0.000000 -0.000000 0.000000 -0.000000 1.324646 7.759543 1.931202 -1.084814 -1.286101 -0.884504 6.334537 -7.760533 29.271735 -1.149963 2.459991 19.899850 -3.315576 9.285187 17.501825 -2.253167 11.229263 9.969236 -0.026155 7.335515 0.983467 2.626411 1.185194 1.998144 0.091698 3.832999 -0.747550 1.911978 -0.057222 -9.700698 -3.251116 -0.665381 16.855729 -1.149989 3.605749 -8.079621 0.481617 2.472455 -1.793168 -0.000000 -0.000038 0.000000 -0.023678 2.704229 -7.504272 -1.397275 0.009850 -7.082453 3.114410 0.616699 16.121823 -5.198445 -8.911152 -4.721606 -0.088045 -3.666225 -0.286230 0.008366 -0.000046 0.038681 1.563585 0.077000 1.170881 -4.986169 -7.468557 -4.483318 3.315694 -0.110051 0.441959 -7.257955 -0.918586 1.089334 0.000068 -0.000073 -0.000056 -0.000047 -0.041867 0.027949 1.973605 3.632376 4.930907 -0.488242 -0.148060 0.224963 2.234385 0.248994 -0.617698 2.730134 -0.547158 -3.300358 -2.602621 -0.944252 -4.952195 7.378485 3.394218 2.145086 0.005146 0.096997 -2.368464 -1.145195 -1.862010 6.975556 -3.928572 6.421326 -3.954912 2.286252 -3.397721 0.335059 -0.802277 0.160589 -0.479853 -0.804181 0.123478 -0.482645 -2.825096 0.795426 0.781585 3.648269 1.142687 -14.761830 -0.097226 0.748984 18.493647 -3.095212 -2.735417 -20.359141 -3.556247 0.119849 -29.973524 -0.000685 -0.000714 -0.127044 0.036699 0.063847 2.451870 -0.000913 0.100620 2.451949 1.009392 -1.242786 1.564150 0.999204 1.687412 -5.122381 6.036079 2.165883 -8.181733 2.535069 -1.147253 -3.290410 1.358196 -0.012632 0.141156 -4.083464 -0.490493 3.418535 -0.389385 0.322882 2.373420 -4.736396 0.454470 -35.419975 0.000006 -0.000243 -21.499108 1.287914 -1.993858 35.722521 -0.000115 -0.000119 -40.479355 -0.000009 -0.000004 -1.797734 -0.000005 -0.000006 -2.378479 -0.000204 -0.000146 -62.969181 -23.901448 -11.934232 -2.561124 34.949183 16.671916 -5.206577 -0.000113 -0.000126 -42.424101 0.000023 0.000009 -0.000022 0.441226 1.445612 -0.931087 -17.212968 -8.199720 -0.058924 -3.857705 1.249575 0.439418 0.024266 -0.029996 11.786690 5.384059 -2.254432 0.103991 0.023229 -0.032323 11.715964 5.967712 -1.550124 -5.462909 0.050315 0.015181 11.756014 1.569851 -4.281719 -0.760085 0.050159 0.014799 11.743121 -0.000083 0.000061 6.235915 -0.004517 -0.052564 11.750692 0.000063 -0.000011 11.750677 
0.000000 0.000000 0.000000 0.000008 0.000000 -0.000000 -0.000000 0.000000 -0.000000 1.303379 7.784850 1.980147 -1.063290 -1.269268 -0.839935 5.895094 -7.027886 29.214659 -0.681592 1.298172 20.343906 -3.036280 8.717838 16.932671 -2.220974 11.632558 9.315097 -0.027942 8.069291 0.936655 2.802460 1.185076 1.954829 -0.138369 3.686000 -0.667896 1.937255 -0.060159 -9.829571 -3.243580 -0.662651 16.815244 -1.121980 3.611190 -8.081519 0.466295 2.517069 -1.736726 -0.000000 -0.000041 0.000000 -0.198547 2.675110 -7.377500 -1.430657 0.012209 -7.251999 3.096061 0.610302 16.023596 -5.128859 -8.937678 -4.591369 -0.097760 -3.658971 -0.317871 0.008366 -0.000046 0.038681 1.756005 0.120336 1.174410 -5.263897 -7.525186 -4.542602 3.103880 -0.117883 0.176363 -9.656986 -1.222044 1.041413 0.000068 -0.000074 -0.000055 -0.000034 -0.055895 0.027948 1.973588 3.632381 4.930972 -0.488244 -0.148060 0.224962 2.234377 0.248990 -0.617703 3.834741 -0.894209 -3.214044 -3.725560 -0.664560 -5.055705 9.522909 3.796806 3.800041 0.015084 0.200512 -4.904171 -1.263511 -1.914622 7.735932 -3.923353 6.410378 -4.063365 2.288993 -3.400450 0.335432 -0.802404 0.160589 -0.479862 -0.804181 0.123476 -0.482645 -3.885837 0.712222 3.040372 5.010103 1.897432 -14.966229 -0.121883 0.826542 20.478130 -2.892898 -3.286273 -26.473455 -4.673300 0.839315 -40.959196 -0.000639 -0.000725 -0.117996 0.036825 0.063848 2.451867 -0.000913 0.100619 2.451957 1.009578 -1.242752 1.564131 0.316026 1.429844 -4.440650 6.065955 2.065002 -7.633471 3.533586 -1.734162 -3.194201 1.399279 0.140099 -0.034359 -5.189854 -0.592593 3.146935 -1.167537 0.226574 2.284803 -5.062301 2.498957 -34.201025 0.000005 -0.000242 -21.499106 2.382779 -3.839437 34.087435 -0.000114 -0.000119 -40.112755 -0.000008 -0.000004 -1.797736 -0.000004 -0.000006 -2.378482 -0.000200 -0.000145 -62.397398 -23.901453 -11.934232 -2.561128 34.949197 16.671906 -5.206597 -0.000111 -0.000125 -42.077350 0.000022 0.000009 -0.000019 0.441150 1.445655 -0.931078 -16.899758 -7.727525 -0.503508 -3.670776 1.176919 0.424569 0.024208 -0.030016 11.786618 5.099698 -2.140754 0.093364 0.023273 -0.032316 11.715899 5.854292 -1.439136 -5.580782 0.050269 0.015095 11.755988 1.749834 -4.454295 -0.765996 0.050204 0.014886 11.743104 -0.000084 0.000062 6.218711 -0.004488 -0.052598 11.750689 0.000062 -0.000010 11.750672 
0.000000 0.000000 0.000000 0.000008 0.000000 -0.000000 -0.000000 0.000000 -0.000000 1.282935 7.807757 2.029221 -1.040457 -1.247686 -0.797371 5.440051 -6.266877 29.161499 -0.204121 0.178311 20.791437 -2.753500 8.047557 16.484429 -2.140678 11.881267 8.593200 -0.036983 8.554612 0.472645 2.919136 1.173223 1.914192 -0.311970 3.550517 -0.585178 1.963110 -0.063227 -9.961427 -3.242181 -0.662146 16.807724 -1.074925 3.614106 -8.165758 0.440130 2.565298 -1.639394 -0.000000 -0.000041 0.000000 -0.318440 2.651815 -7.241674 -1.464617 0.014699 -7.424428 3.077709 0.603946 15.925423 -5.056087 -8.963075 -4.465051 -0.107122 -3.651885 -0.348357 0.008366 -0.000046 0.038681 1.891679 0.149699 1.177257 -5.542256 -7.578777 -4.598886 2.804263 -0.121109 0.013043 -11.542514 -1.464679 0.995098 0.000069 -0.000073 -0.000057 -0.000046 -0.041866 0.027948 1.973573 3.632368 4.930949 -0.488251 -0.148061 0.224962 2.234382 0.248987 -0.617703 4.735262 -1.111120 -3.123974 -4.636891 -0.500004 -5.162051 11.227657 4.129696 5.249613 0.027611 0.291164 -7.135539 -1.334957 -1.973667 8.410229 -3.916131 6.399720 -4.180703 2.292862 -3.401582 0.336258 -0.802206 0.160591 -0.479848 -0.804182 0.123477 -0.482645 -4.746461 0.633954 4.549945 6.150924 2.419200 -14.398674 -0.127283 0.842376 20.886051 -2.713429 -3.712104 -30.099595 -5.377481 1.476316 -48.809198 -0.000657 -0.000646 -0.110064 0.036626 0.063846 2.451867 -0.000915 0.100619 2.451960 1.009567 -1.242766 1.564130 -0.095741 0.906610 -2.892604 5.432671 1.885524 -6.612590 4.362730 -2.148163 -3.093008 1.398391 0.137212 -0.031113 -5.791865 -0.640270 2.747606 -1.916582 0.136332 2.208237 -5.334584 4.006986 -33.103755 0.000005 -0.000242 -21.499108 3.151471 -5.269264 32.617428 -0.000113 -0.000119 -39.786938 -0.000009 -0.000004 -1.797736 -0.000005 -0.000007 -2.378482 -0.000199 -0.000146 -61.884963 -23.901448 -11.934229 -2.561131 34.949183 16.671921 -5.206580 -0.000109 -0.000125 -41.755060 0.000022 0.000009 -0.000022 0.441180 1.445632 -0.931079 -16.658285 -7.386964 -0.818800 -3.459009 1.114311 0.394394 0.024241 -0.030007 11.786669 4.813670 -2.027792 0.083236 0.023251 -0.032320 11.715940 5.744095 -1.330659 -5.695850 0.050291 0.015129 11.756000 1.925844 -4.623300 -0.771309 0.050132 0.014747 11.743134 -0.000083 0.000060 6.201910 -0.004453 -0.052639 11.750686 0.000062 -0.000011 11.750677 
